name GIL03_static.mot
datacolumns 141
datarows 4
range 0.48333332 0.50833333
endheader

                time	           pelvis_tx	           pelvis_ty	           pelvis_tz	         pelvis_tilt	         pelvis_list	     pelvis_rotation	       hip_flexion_r	     hip_adduction_r	      hip_rotation_r	        knee_angle_r	       ankle_angle_r	    subtalar_angle_r	         mtp_angle_r	       hip_flexion_l	     hip_adduction_l	      hip_rotation_l	        knee_angle_l	       ankle_angle_l	    subtalar_angle_l	         mtp_angle_l	    lumbar_extension	      lumbar_bending	     lumbar_rotation	    ground_marker_px	    ground_marker_py	    ground_marker_pz	    ground_marker_px	    ground_marker_py	    ground_marker_pz	    ground_marker_px	    ground_marker_py	    ground_marker_pz	    ground_marker_px	    ground_marker_py	    ground_marker_pz	    ground_marker_px	    ground_marker_py	    ground_marker_pz	    ground_marker_px	    ground_marker_py	    ground_marker_pz	    ground_marker_px	    ground_marker_py	    ground_marker_pz	    ground_marker_px	    ground_marker_py	    ground_marker_pz	    ground_marker_px	    ground_marker_py	    ground_marker_pz	    ground_marker_px	    ground_marker_py	    ground_marker_pz	    ground_marker_px	    ground_marker_py	    ground_marker_pz	    ground_marker_px	    ground_marker_py	    ground_marker_pz	    ground_marker_px	    ground_marker_py	    ground_marker_pz	    ground_marker_px	    ground_marker_py	    ground_marker_pz	    ground_marker_px	    ground_marker_py	    ground_marker_pz	    ground_marker_px	    ground_marker_py	    ground_marker_pz	    ground_marker_px	    ground_marker_py	    ground_marker_pz	    ground_marker_px	    ground_marker_py	    ground_marker_pz	    ground_marker_px	    ground_marker_py	    ground_marker_pz	    ground_marker_px	    ground_marker_py	    ground_marker_pz	    ground_marker_px	    ground_marker_py	    ground_marker_pz	    ground_marker_px	    ground_marker_py	    ground_marker_pz	    ground_marker_px	    ground_marker_py	    ground_marker_pz	    ground_marker_px	    ground_marker_py	    ground_marker_pz	    ground_marker_px	    ground_marker_py	    ground_marker_pz	    ground_marker_px	    ground_marker_py	    ground_marker_pz	    ground_marker_px	    ground_marker_py	    ground_marker_pz	    ground_marker_px	    ground_marker_py	    ground_marker_pz	    ground_marker_px	    ground_marker_py	    ground_marker_pz	    ground_marker_px	    ground_marker_py	    ground_marker_pz	    ground_marker_px	    ground_marker_py	    ground_marker_pz	    ground_marker_px	    ground_marker_py	    ground_marker_pz	    ground_marker_px	    ground_marker_py	    ground_marker_pz	    ground_marker_px	    ground_marker_py	    ground_marker_pz	    ground_marker_px	    ground_marker_py	    ground_marker_pz	    ground_marker_px	    ground_marker_py	    ground_marker_pz	    ground_marker_px	    ground_marker_py	    ground_marker_pz	    ground_marker_px	    ground_marker_py	    ground_marker_pz	    ground_marker_px	    ground_marker_py	    ground_marker_pz	
          0.48333332	          1.52325010	          0.90224743	         -0.27171320	         -8.87342834	         -4.36136913	          6.32840300	          5.82426262	         -1.19100523	          6.99969292	          0.42481834	          2.87233710	          0.00000000	          0.00000000	          9.77541542	         -6.15046930	         12.30311394	         -2.82364321	          2.39321494	          0.00000000	          0.00000000	         -1.38637841	         -1.62585950	         -2.00810909	          1.45022964	          0.83500475	         -0.26001322	          1.46278393	          0.83655679	         -0.20265569	          1.43767536	          0.83345270	         -0.31737077	          1.44306636	          0.45968360	         -0.18022020	          1.43748403	          0.46494910	         -0.34564507	          1.42093122	          0.06350343	         -0.17400217	          1.41584575	          0.06600274	         -0.35588571	          1.52325010	          0.90224743	         -0.27171320	          1.53643525	          0.90542883	         -0.17113954	          1.51006496	          0.89906609	         -0.37228689	          1.37931359	          0.95953089	         -0.23243858	          1.37323380	          0.95903009	         -0.28682154	          1.45685506	          0.46212846	         -0.12703286	          1.44204235	          0.46910152	         -0.39979514	          1.42676485	          0.45222181	         -0.23234192	          1.42793202	          0.45304590	         -0.29498631	          1.41061187	          0.06466185	         -0.13692905	          1.40886784	          0.06735249	         -0.39372399	          1.44254291	          0.07633482	         -0.20193560	          1.43896663	          0.07622341	         -0.33363554	          1.37359941	          0.04297161	         -0.16856895	          1.37056088	          0.04796455	         -0.34392723	          1.50678444	          1.29847777	         -0.28934377	          1.57326853	          1.13643408	         -0.28425393	          1.42487323	          1.35006869	         -0.27529913	          1.52743220	          1.29228818	         -0.23042752	          1.51639414	          1.28509927	         -0.33953184	          1.53380609	          0.04132505	         -0.12727715	          1.53206503	          0.03905207	         -0.40754107	          1.58967900	          0.62041217	         -0.20042931	          1.57293975	          0.62494332	         -0.33075672	          1.52132785	          0.67653096	         -0.15219375	          1.50193489	          0.67352396	         -0.38402909	          1.50746047	          0.59162509	         -0.14691129	          1.49828172	          0.58536613	         -0.38146409	          1.41140556	          0.18739046	         -0.06721564	          1.36141622	          0.18529122	         -0.44454396	          1.41582358	          0.19325903	         -0.10885872	          1.38309777	          0.19002578	         -0.40736157	
          0.49166667	          1.52366877	          0.90249074	         -0.27168760	         -8.71319580	         -4.14477253	          6.09686232	          5.63733864	         -1.36715257	          7.29624271	          0.41521722	          2.89852548	          0.00000000	          0.00000000	          9.48966217	         -6.00280762	         12.12366867	         -2.82681370	          2.46936464	          0.00000000	          0.00000000	         -1.58816516	         -1.78359628	         -1.66549385	          1.45079827	          0.83499807	         -0.26050204	          1.46305466	          0.83646780	         -0.20307793	          1.43854201	          0.83352834	         -0.31792614	          1.44331813	          0.45965177	         -0.18023224	          1.43793917	          0.46497765	         -0.34580302	          1.42098618	          0.06344507	         -0.17397916	          1.41580546	          0.06598517	         -0.35590020	          1.52366877	          0.90249074	         -0.27168760	          1.53631878	          0.90549773	         -0.17113280	          1.51101863	          0.89948368	         -0.37224239	          1.37919641	          0.95945174	         -0.23249675	          1.37314308	          0.95893294	         -0.28693277	          1.45711410	          0.46215355	         -0.12704943	          1.44261980	          0.46906546	         -0.39994758	          1.42720878	          0.45218337	         -0.23244660	          1.42839086	          0.45280167	         -0.29549921	          1.41066921	          0.06461169	         -0.13690560	          1.40891063	          0.06732561	         -0.39375407	          1.44254518	          0.07626386	         -0.20193875	          1.43899572	          0.07613665	         -0.33365080	          1.37360716	          0.04295838	         -0.16855508	          1.37064528	          0.04793544	         -0.34399539	          1.50655496	          1.29845524	         -0.28934351	          1.57295525	          1.13637483	         -0.28432512	          1.42471719	          1.35005248	         -0.27537367	          1.52726567	          1.29225516	         -0.23046215	          1.51610100	          1.28507066	         -0.33953080	          1.53379548	          0.04129748	         -0.12728338	          1.53207684	          0.03902588	         -0.40754083	          1.58984482	          0.62064523	         -0.20038591	          1.57311308	          0.62501806	         -0.33063516	          1.52139103	          0.67659438	         -0.15216967	          1.50218320	          0.67353171	         -0.38407606	          1.50765324	          0.59168923	         -0.14692634	          1.49871981	          0.58537531	         -0.38161463	          1.41155434	          0.18740112	         -0.06719808	          1.36173809	          0.18529095	         -0.44471338	          1.41600919	          0.19319957	         -0.10883111	          1.38342738	          0.18997271	         -0.40749204	
          0.50000000	          1.52422035	          0.90278351	         -0.27164343	         -8.52133179	         -3.87587094	          5.81809759	          5.39498138	         -1.59063566	          7.68032551	          0.43270674	          2.92432761	          0.00000000	          0.00000000	          9.12215614	         -5.80649757	         11.83469582	         -2.79066062	          2.53678393	          0.00000000	          0.00000000	         -1.81277704	         -1.98375285	         -1.33092844	          1.45153224	          0.83499324	         -0.26109028	          1.46342742	          0.83635336	         -0.20358756	          1.43963706	          0.83363318	         -0.31859300	          1.44353712	          0.45961797	         -0.18022576	          1.43837893	          0.46501920	         -0.34592575	          1.42101622	          0.06338323	         -0.17395759	          1.41579401	          0.06596319	         -0.35591608	          1.52422035	          0.90278351	         -0.27164343	          1.53622282	          0.90556294	         -0.17111932	          1.51221788	          0.90000415	         -0.37216753	          1.37907708	          0.95936900	         -0.23252416	          1.37304819	          0.95882940	         -0.28701770	          1.45736611	          0.46218508	         -0.12705460	          1.44314122	          0.46901774	         -0.40006986	          1.42751253	          0.45222238	         -0.23249671	          1.42894781	          0.45255789	         -0.29595262	          1.41071987	          0.06455502	         -0.13687845	          1.40895605	          0.06729813	         -0.39378047	          1.44254529	          0.07621919	         -0.20194259	          1.43903196	          0.07606360	         -0.33365119	          1.37361443	          0.04294113	         -0.16852830	          1.37065804	          0.04792625	         -0.34400186	          1.50629973	          1.29845953	         -0.28937936	          1.57265496	          1.13636172	         -0.28432786	          1.42454612	          1.35003603	         -0.27544618	          1.52700841	          1.29226482	         -0.23052771	          1.51584268	          1.28506303	         -0.33953395	          1.53377891	          0.04127069	         -0.12728536	          1.53208458	          0.03900630	         -0.40753612	          1.58999395	          0.62089527	         -0.20041367	          1.57324350	          0.62508619	         -0.33051351	          1.52150035	          0.67668778	         -0.15214567	          1.50239158	          0.67353296	         -0.38413903	          1.50784981	          0.59176743	         -0.14693877	          1.49917936	          0.58541876	         -0.38174704	          1.41171741	          0.18740831	         -0.06716067	          1.36201572	          0.18528965	         -0.44484630	          1.41616631	          0.19316503	         -0.10878342	          1.38367021	          0.18991458	         -0.40757257	
          0.50833333	          1.52478707	          0.90308249	         -0.27158633	         -8.32700348	         -3.60674739	          5.54224110	          5.14389229	         -1.81791759	          8.07801151	          0.46278012	          2.94887567	          0.00000000	          0.00000000	          8.74844360	         -5.60400152	         11.50771046	         -2.74293518	          2.59455705	          0.00000000	          0.00000000	         -2.05203104	         -2.17054152	         -1.06724250	          1.45228791	          0.83499527	         -0.26166415	          1.46382487	          0.83624196	         -0.20408592	          1.44075096	          0.83374858	         -0.31924236	          1.44372153	          0.45959994	         -0.18020172	          1.43879282	          0.46505964	         -0.34602103	          1.42102563	          0.06332978	         -0.17393644	          1.41581023	          0.06593920	         -0.35593557	          1.52478707	          0.90308249	         -0.27158633	          1.53614926	          0.90562832	         -0.17109592	          1.51342487	          0.90053672	         -0.37207672	          1.37897062	          0.95928538	         -0.23252977	          1.37295032	          0.95872885	         -0.28707173	          1.45759988	          0.46222994	         -0.12704651	          1.44359744	          0.46896696	         -0.40016803	          1.42769432	          0.45229968	         -0.23247959	          1.42952001	          0.45240536	         -0.29612276	          1.41076148	          0.06450403	         -0.13684845	          1.40900230	          0.06727194	         -0.39380544	          1.44255733	          0.07619198	         -0.20193073	          1.43905485	          0.07600284	         -0.33364847	          1.37361670	          0.04292608	         -0.16849062	          1.37063694	          0.04791901	         -0.34396073	          1.50600243	          1.29844058	         -0.28940013	          1.57227671	          1.13631296	         -0.28424495	          1.42434275	          1.35000503	         -0.27556062	          1.52664065	          1.29224634	         -0.23052152	          1.51559675	          1.28503108	         -0.33954355	          1.53376031	          0.04125267	         -0.12728260	          1.53208816	          0.03899678	         -0.40752992	          1.59012735	          0.62116039	         -0.20050593	          1.57340741	          0.62517750	         -0.33048099	          1.52162075	          0.67682195	         -0.15215477	          1.50258982	          0.67352647	         -0.38419887	          1.50801861	          0.59185058	         -0.14695467	          1.49958527	          0.58544785	         -0.38180596	          1.41188455	          0.18742087	         -0.06710567	          1.36224759	          0.18529540	         -0.44493979	          1.41628051	          0.19317488	         -0.10874036	          1.38387823	          0.18985891	         -0.40763575	
